<svg xmlns="http://www.w3.org/2000/svg" width="512" height="512" viewBox="0 0 512 512" role="img" aria-label="Kitsune fox logo">
  <defs>
    <linearGradient id="bg" x1="0" y1="0" x2="1" y2="1">
      <stop offset="0%" stop-color="#12192a"/>
      <stop offset="100%" stop-color="#060a13"/>
    </linearGradient>
    <linearGradient id="fur" x1="0" y1="0" x2="0" y2="1">
      <stop offset="0%" stop-color="#ffb25a"/>
      <stop offset="100%" stop-color="#f47a2b"/>
    </linearGradient>
  </defs>
  <rect width="512" height="512" rx="96" fill="url(#bg)"/>

  <polygon points="110,152 214,118 176,236" fill="url(#fur)"/>
  <polygon points="402,152 298,118 336,236" fill="url(#fur)"/>
  <polygon points="146,168 203,148 182,214" fill="#ffd6a4" opacity=".86"/>
  <polygon points="366,168 309,148 330,214" fill="#ffd6a4" opacity=".86"/>

  <path d="M256 146
           C188 146 136 196 136 260
           C136 336 194 390 256 412
           C318 390 376 336 376 260
           C376 196 324 146 256 146z" fill="url(#fur)"/>

  <path d="M256 180
           C212 180 176 216 176 264
           C176 312 212 350 256 368
           C300 350 336 312 336 264
           C336 216 300 180 256 180z" fill="#fff4e2"/>

  <path d="M196 246 L256 294 L316 246 L256 226 Z" fill="#20212e"/>
  <circle cx="224" cy="252" r="11" fill="#20212e"/>
  <circle cx="288" cy="252" r="11" fill="#20212e"/>
  <path d="M246 308 Q256 320 266 308" fill="none" stroke="#20212e" stroke-width="9" stroke-linecap="round"/>

  <text x="256" y="470" text-anchor="middle" font-family="Avenir Next, Segoe UI, sans-serif" font-size="48" font-weight="700" fill="#ffb25a" letter-spacing="4">KITSUNE</text>
</svg>
